<svg width="500" height="500" viewBox="0 0 500 500" fill="none" xmlns="http://www.w3.org/2000/svg">
<mask id="mask0_191_484" style="mask-type:luminance" maskUnits="userSpaceOnUse" x="204" y="216" width="142" height="30">
<path d="M204.583 216.661H345.583V245.661H204.583V216.661Z" fill="white"/>
</mask>
<g mask="url(#mask0_191_484)">
<path d="M263.198 226.234C260.932 226.234 258.698 225.693 256.698 224.662L250.688 219.839C248.083 217.745 244.786 216.662 241.422 216.781L206.208 219.859C205.313 219.891 204.599 220.615 204.599 221.464C204.599 222.313 205.313 222.984 206.208 222.953L237.5 221.453C238.734 221.412 239.745 222.292 239.745 223.417C239.745 224.537 238.734 225.458 237.5 225.479L206.208 226.359C205.313 226.37 204.599 227.073 204.599 227.922C204.599 228.771 205.313 229.453 206.208 229.453L237.5 229.141C238.734 229.13 239.745 230.031 239.745 231.151C239.745 232.276 238.734 233.177 237.5 233.167L206.208 232.854C205.313 232.865 204.599 233.542 204.599 234.391C204.599 235.24 205.313 235.943 206.208 235.964L237.5 236.844C238.734 236.87 239.745 237.792 239.745 238.912C239.745 240.031 238.734 240.917 237.5 240.87L206.208 239.375C205.313 239.344 204.599 240.01 204.599 240.859C204.599 241.714 205.313 242.432 206.208 242.464L241.422 245.547C244.786 245.662 248.073 244.573 250.688 242.484L256.698 237.662C258.708 236.625 260.932 236.094 263.198 236.094C263.198 236.094 296.823 233.849 329.276 238.094C329.276 238.094 345.568 241.375 345.568 231.172C345.568 220.974 329.276 224.255 329.276 224.255C296.823 228.479 263.198 226.234 263.198 226.234Z" fill="#7FEEB1"/>
</g>
<mask id="mask1_191_484" style="mask-type:luminance" maskUnits="userSpaceOnUse" x="154" y="164" width="142" height="36">
<path d="M154.401 164H295.401V200H154.401V164Z" fill="white"/>
</mask>
<g mask="url(#mask1_191_484)">
<path d="M244.698 187.286C247.453 191.766 251.12 200.969 267.187 199.5C282.687 198.089 294.88 191.109 295.38 183.307C295.38 183.406 295.391 183.505 295.391 183.604C295.391 183.521 295.391 183.438 295.391 183.359C295.396 183.214 295.391 183.068 295.391 182.922C295.391 182.766 295.396 182.609 295.391 182.453C295.396 182.318 295.391 182.182 295.391 182.052C295.391 181.906 295.396 181.766 295.391 181.625C295.396 181.5 295.391 181.375 295.391 181.255C295.391 181.359 295.375 181.469 295.37 181.578C294.802 174.203 282.635 166.719 267.187 165.396C251.12 164.016 247.734 172.859 244.698 176.87C242.448 179.828 237.734 179.547 237.734 179.547C237.734 179.547 233.849 179.344 225.562 178.703C217.635 178.094 176.135 174.599 168.604 174.599C161.531 174.599 154.937 173.792 154.437 180.422C154.432 180.344 154.422 180.276 154.417 180.198V180.063C154.406 180.318 154.406 180.583 154.417 180.859C154.406 181.156 154.406 181.464 154.417 181.786L154.422 181.823C154.417 181.99 154.411 182.156 154.411 182.333C154.417 182.203 154.427 182.083 154.432 181.964C154.937 189.87 167.547 188.292 167.547 188.292C167.547 188.292 217.234 185.734 225.516 185.13C234.479 184.474 237.734 184.391 237.734 184.391C237.734 184.391 242.703 184.057 244.698 187.286Z" fill="#7FEEB1"/>
</g>
<mask id="mask2_191_484" style="mask-type:luminance" maskUnits="userSpaceOnUse" x="170" y="124" width="160" height="161">
<path d="M170.167 124.568H329.833V284.24H170.167V124.568Z" fill="white"/>
</mask>
<g mask="url(#mask2_191_484)">
<mask id="mask3_191_484" style="mask-type:luminance" maskUnits="userSpaceOnUse" x="170" y="124" width="160" height="161">
<path d="M250 124.568C205.906 124.568 170.167 160.312 170.167 204.401C170.167 248.495 205.906 284.24 250 284.24C294.094 284.24 329.833 248.495 329.833 204.401C329.833 160.312 294.094 124.568 250 124.568Z" fill="white"/>
</mask>
<g mask="url(#mask3_191_484)">
<path d="M170.167 124.568H329.833V284.24H170.167V124.568Z" fill="#7FEEB1"/>
</g>
</g>
<mask id="mask4_191_484" style="mask-type:luminance" maskUnits="userSpaceOnUse" x="158" y="176" width="142" height="36">
<path d="M158.104 176H299.104V212H158.104V176Z" fill="white"/>
</mask>
<g mask="url(#mask4_191_484)">
<path d="M248.396 198.354C251.151 202.833 254.823 212.031 270.885 210.568C286.391 209.151 298.583 202.172 299.078 194.37C299.083 194.469 299.094 194.568 299.088 194.667C299.088 194.583 299.094 194.505 299.094 194.422C299.099 194.276 299.094 194.13 299.088 193.984C299.094 193.828 299.099 193.672 299.094 193.521C299.099 193.385 299.094 193.25 299.088 193.115C299.094 192.974 299.099 192.833 299.094 192.688C299.099 192.568 299.088 192.443 299.088 192.318C299.088 192.427 299.078 192.531 299.073 192.641C298.5 185.266 286.338 177.781 270.885 176.458C254.823 175.083 251.437 183.927 248.396 187.932C246.151 190.891 241.437 190.609 241.437 190.609C241.437 190.609 237.547 190.406 229.266 189.771C221.338 189.161 179.838 185.661 172.307 185.661C165.234 185.661 158.635 184.854 158.141 191.484C158.135 191.411 158.12 191.339 158.12 191.26V191.125C158.109 191.385 158.109 191.651 158.12 191.927C158.109 192.224 158.104 192.531 158.12 192.854V192.885C158.12 193.052 158.109 193.219 158.115 193.396C158.12 193.266 158.13 193.146 158.135 193.026C158.641 200.932 171.25 199.354 171.25 199.354C171.25 199.354 220.937 196.802 229.219 196.193C238.182 195.536 241.437 195.458 241.437 195.458C241.437 195.458 246.406 195.125 248.396 198.354Z" fill="#F6F6F6"/>
</g>
<mask id="mask5_191_484" style="mask-type:luminance" maskUnits="userSpaceOnUse" x="200" y="204" width="142" height="30">
<path d="M200.88 204.755H341.88V233.755H200.88V204.755Z" fill="white"/>
</mask>
<g mask="url(#mask5_191_484)">
<path d="M259.495 214.328C257.229 214.328 254.995 213.781 252.995 212.755L246.99 207.932C244.38 205.833 241.083 204.755 237.724 204.87L202.505 207.953C201.609 207.984 200.896 208.708 200.896 209.557C200.896 210.406 201.609 211.073 202.505 211.042L233.797 209.547C235.031 209.505 236.042 210.385 236.042 211.505C236.042 212.625 235.031 213.552 233.797 213.573L202.505 214.453C201.609 214.464 200.896 215.167 200.896 216.016C200.896 216.865 201.609 217.547 202.505 217.547L233.797 217.229C235.031 217.219 236.042 218.12 236.042 219.245C236.042 220.365 235.031 221.266 233.797 221.255L202.505 220.943C201.609 220.953 200.896 221.635 200.896 222.484C200.896 223.333 201.609 224.037 202.505 224.057L233.797 224.938C235.031 224.958 236.042 225.88 236.042 227C236.042 228.125 235.031 229.005 233.797 228.964L202.505 227.464C201.609 227.432 200.896 228.104 200.896 228.953C200.896 229.802 201.609 230.526 202.505 230.557L237.724 233.635C241.083 233.755 244.37 232.662 246.99 230.578L252.995 225.755C255.005 224.714 257.229 224.182 259.495 224.182C259.495 224.182 293.12 221.938 325.573 226.182C325.573 226.182 341.87 229.464 341.87 219.266C341.87 209.063 325.573 212.344 325.573 212.344C293.12 216.568 259.495 214.328 259.495 214.328Z" fill="#F6F6F6"/>
</g>
<path d="M154.404 328.051H163.456C167.951 328.051 170.753 325.66 170.753 321.806C170.753 319.285 169.513 317.405 167.216 316.483C169.034 315.556 170.117 313.837 170.117 311.67C170.117 308.066 167.31 305.743 163.039 305.743H154.404V328.051ZM157.211 325.436V317.946H163.362C166.258 317.946 167.883 319.316 167.883 321.676C167.883 324.066 166.258 325.436 163.393 325.436H157.211ZM157.211 315.399V308.353H162.977C165.685 308.353 167.247 309.629 167.247 311.894C167.247 314.123 165.716 315.399 162.977 315.399H157.211Z" fill="#F6F6F6"/>
<path d="M175.781 328.051H178.589V305.743H175.781V328.051Z" fill="#F6F6F6"/>
<path d="M190.47 328.051H193.277V308.42H200.798V305.743H182.918V308.42H190.47V328.051Z" fill="#F6F6F6"/>
<path d="M205.156 328.051H219.052V325.436H207.963V317.978H217.906V315.399H207.963V308.353H218.703V305.743H205.156V328.051Z" fill="#F6F6F6"/>
<path d="M232.268 328.051H241.32C245.815 328.051 248.617 325.66 248.617 321.806C248.617 319.285 247.377 317.405 245.081 316.483C246.898 315.556 247.982 313.837 247.982 311.67C247.982 308.066 245.174 305.743 240.903 305.743H232.268V328.051ZM235.075 325.436V317.946H241.226C244.122 317.946 245.747 319.316 245.747 321.676C245.747 324.066 244.122 325.436 241.258 325.436H235.075ZM235.075 315.399V308.353H240.841C243.549 308.353 245.112 309.629 245.112 311.894C245.112 314.123 243.581 315.399 240.841 315.399H235.075Z" fill="#F6F6F6"/>
<path d="M259.318 328.051H262.062V320.019L270.443 305.743H267.286L260.724 317.024L257.823 311.988L254.187 305.743H250.937L259.318 320.019V328.051Z" fill="#F6F6F6"/>
<path d="M282.128 328.051H291.18C295.675 328.051 298.477 325.66 298.477 321.806C298.477 319.285 297.237 317.405 294.941 316.483C296.758 315.556 297.842 313.837 297.842 311.67C297.842 308.066 295.034 305.743 290.763 305.743H282.128V328.051ZM284.935 325.436V317.946H291.086C293.982 317.946 295.607 319.316 295.607 321.676C295.607 324.066 293.982 325.436 291.118 325.436H284.935ZM284.935 315.399V308.353H290.701C293.409 308.353 294.972 309.629 294.972 311.894C294.972 314.123 293.441 315.399 290.701 315.399H284.935Z" fill="#F6F6F6"/>
<path d="M303.506 328.051H306.313V305.743H303.506V328.051Z" fill="#F6F6F6"/>
<path d="M318.194 328.051H321.001V308.42H328.522V305.743H310.642V308.42H318.194V328.051Z" fill="#F6F6F6"/>
<path d="M332.88 328.051H346.776V325.436H335.687V317.978H345.63V315.399H335.687V308.353H346.427V305.743H332.88V328.051Z" fill="#F6F6F6"/>
</svg>
