<svg width="15" height="15" viewBox="0 0 15 15" fill="none" xmlns="http://www.w3.org/2000/svg">
<g clip-path="url(#clip0_264_412)">
<path d="M14.8974 5.49644C14.7695 5.0895 14.5141 4.7345 14.1689 4.48396C13.8237 4.23341 13.407 4.1006 12.9805 4.10519H10.2499L9.4205 1.52018C9.29008 1.11328 9.03379 0.758319 8.68861 0.506476C8.34342 0.254633 7.92717 0.118927 7.49988 0.118927C7.07258 0.118927 6.65633 0.254633 6.31115 0.506476C5.96596 0.758319 5.70967 1.11328 5.57925 1.52018L4.74988 4.10519H2.01925C1.59409 4.10579 1.18 4.24074 0.836114 4.49075C0.492231 4.74076 0.236152 5.09305 0.104452 5.4973C-0.0272473 5.90155 -0.0278302 6.33708 0.102787 6.74168C0.233404 7.14628 0.488539 7.49925 0.831751 7.75019L3.05425 9.37519L2.20925 11.9921C2.0727 12.3979 2.07097 12.8371 2.20432 13.244C2.33767 13.6509 2.59897 14.0039 2.94925 14.2502C3.29353 14.5044 3.71075 14.6406 4.13872 14.6385C4.5667 14.6363 4.98253 14.496 5.32425 14.2383L7.49988 12.6371L9.67613 14.2364C10.0198 14.4892 10.4347 14.6265 10.8614 14.6286C11.288 14.6307 11.7042 14.4974 12.0504 14.248C12.3965 13.9986 12.6546 13.6458 12.7876 13.2405C12.9205 12.8351 12.9216 12.398 12.7905 11.9921L11.9455 9.37519L14.1705 7.75019C14.5176 7.5024 14.7758 7.14943 14.9067 6.74353C15.0376 6.33762 15.0343 5.90035 14.8974 5.49644ZM13.433 6.74081L10.843 8.63394C10.7366 8.71154 10.6575 8.82076 10.6168 8.94602C10.5762 9.07127 10.5762 9.20616 10.6168 9.33144L11.6011 12.3752C11.6509 12.5296 11.6505 12.6958 11.5999 12.8499C11.5493 13.004 11.4511 13.1381 11.3195 13.2329C11.1879 13.3277 11.0296 13.3784 10.8674 13.3775C10.7052 13.3767 10.5474 13.3245 10.4168 13.2283L7.86988 11.3533C7.7626 11.2745 7.63298 11.232 7.49988 11.232C7.36677 11.232 7.23715 11.2745 7.12988 11.3533L4.583 13.2283C4.45243 13.3258 4.29421 13.3791 4.13129 13.3806C3.96837 13.382 3.80921 13.3316 3.67689 13.2365C3.54457 13.1415 3.44597 13.0067 3.39537 12.8519C3.34478 12.697 3.34482 12.53 3.3955 12.3752L4.383 9.33144C4.42357 9.20616 4.42354 9.07127 4.38292 8.94602C4.34229 8.82076 4.26313 8.71154 4.15675 8.63394L1.56675 6.74081C1.43632 6.64531 1.3394 6.51103 1.28984 6.35715C1.24028 6.20327 1.24062 6.03767 1.2908 5.884C1.34099 5.73032 1.43845 5.59644 1.56928 5.50147C1.7001 5.4065 1.85759 5.3553 2.01925 5.35519H5.20675C5.33907 5.35518 5.46798 5.31318 5.57491 5.23523C5.68183 5.15728 5.76126 5.04741 5.80175 4.92144L6.7705 1.90206C6.82023 1.74755 6.9177 1.6128 7.04888 1.51722C7.18006 1.42163 7.33819 1.37013 7.5005 1.37013C7.66282 1.37013 7.82094 1.42163 7.95212 1.51722C8.08331 1.6128 8.18077 1.74755 8.2305 1.90206L9.19925 4.92144C9.23974 5.04741 9.31917 5.15728 9.4261 5.23523C9.53302 5.31318 9.66193 5.35518 9.79425 5.35519H12.9818C13.1434 5.3553 13.3009 5.4065 13.4317 5.50147C13.5625 5.59644 13.66 5.73032 13.7102 5.884C13.7604 6.03767 13.7607 6.20327 13.7112 6.35715C13.6616 6.51103 13.5647 6.64531 13.4343 6.74081H13.433Z" fill="black"/>
</g>
<defs>
<clipPath id="clip0_264_412">
<rect width="15" height="15" fill="white"/>
</clipPath>
</defs>
</svg>
