<svg width="40" height="25" viewBox="0 0 40 25" fill="none" xmlns="http://www.w3.org/2000/svg">
<rect width="40" height="25" rx="12.5" fill="url(#paint0_linear_318_608)"/>
<path d="M26 12.0378H16L19.29 8.99148C19.3837 8.9054 19.4581 8.80299 19.5089 8.69016C19.5597 8.57733 19.5858 8.4563 19.5858 8.33407C19.5858 8.21184 19.5597 8.09081 19.5089 7.97798C19.4581 7.86515 19.3837 7.76274 19.29 7.67666C19.1026 7.50421 18.8492 7.40741 18.585 7.40741C18.3208 7.40741 18.0674 7.50421 17.88 7.67666L13.59 11.6581C13.2144 12.0038 13.0022 12.4733 13 12.9637V12.9637C13.0049 13.4508 13.2168 13.9166 13.59 14.26L17.88 18.2415C17.9732 18.3272 18.0838 18.3951 18.2054 18.4412C18.3269 18.4874 18.4571 18.5109 18.5885 18.5105C18.7199 18.5101 18.8499 18.4857 18.9712 18.4387C19.0924 18.3918 19.2024 18.3232 19.295 18.2368C19.3876 18.1505 19.4609 18.0481 19.5107 17.9356C19.5606 17.823 19.586 17.7024 19.5856 17.5808C19.5851 17.4591 19.5588 17.3387 19.508 17.2265C19.4573 17.1143 19.3832 17.0124 19.29 16.9267L16 13.8896H26C26.2652 13.8896 26.5196 13.7921 26.7071 13.6184C26.8946 13.4448 27 13.2093 27 12.9637C27 12.7181 26.8946 12.4826 26.7071 12.309C26.5196 12.1353 26.2652 12.0378 26 12.0378Z" fill="white"/>
<defs>
<linearGradient id="paint0_linear_318_608" x1="3.42857" y1="0.357143" x2="17.7657" y2="26.2249" gradientUnits="userSpaceOnUse">
<stop stop-color="#43E97B"/>
<stop offset="1" stop-color="#38F9D7"/>
</linearGradient>
</defs>
</svg>
