<svg width="15" height="15" viewBox="0 0 15 15" fill="none" xmlns="http://www.w3.org/2000/svg">
<path d="M11.6936 5.13125C11.6355 5.07267 11.5664 5.02618 11.4902 4.99445C11.4141 4.96272 11.3324 4.94638 11.2499 4.94638C11.1674 4.94638 11.0857 4.96272 11.0095 4.99445C10.9334 5.02618 10.8642 5.07267 10.8061 5.13125L7.94364 7.99375C7.88553 8.05233 7.81641 8.09882 7.74025 8.13056C7.66408 8.16229 7.58239 8.17862 7.49989 8.17862C7.41738 8.17862 7.33569 8.16229 7.25952 8.13056C7.18336 8.09882 7.11424 8.05233 7.05614 7.99375L4.19364 5.13125C4.13553 5.07267 4.06641 5.02618 3.99025 4.99445C3.91408 4.96272 3.83239 4.94638 3.74989 4.94638C3.66738 4.94638 3.58569 4.96272 3.50952 4.99445C3.43336 5.02618 3.36424 5.07267 3.30613 5.13125C3.18973 5.24836 3.12439 5.40676 3.12439 5.57188C3.12439 5.73699 3.18973 5.8954 3.30613 6.0125L6.17489 8.88125C6.52645 9.23237 7.00301 9.4296 7.49989 9.4296C7.99676 9.4296 8.47332 9.23237 8.82489 8.88125L11.6936 6.0125C11.81 5.8954 11.8754 5.73699 11.8754 5.57188C11.8754 5.40676 11.81 5.24836 11.6936 5.13125Z" fill="black"/>
</svg>
