<svg width="25" height="25" viewBox="0 0 25 25" fill="none" xmlns="http://www.w3.org/2000/svg">
<g clip-path="url(#clip0_127_1149)">
<path d="M23.8053 1.19583C23.0972 0.488744 22.1373 0.0915985 21.1366 0.0915985C20.1359 0.0915985 19.176 0.488744 18.4678 1.19583L1.52618 18.1375C1.04102 18.6199 0.656348 19.1938 0.394407 19.8258C0.132465 20.4579 -0.00154249 21.1356 0.000137676 21.8198V23.9583C0.000137676 24.2346 0.109884 24.4996 0.305235 24.6949C0.500585 24.8903 0.765537 25 1.0418 25H3.18035C3.86447 25.0019 4.54219 24.8681 5.17426 24.6064C5.80633 24.3446 6.3802 23.9601 6.86264 23.475L23.8053 6.53229C24.5121 5.82416 24.9091 4.86455 24.9091 3.86406C24.9091 2.86358 24.5121 1.90396 23.8053 1.19583ZM5.38972 22.0021C4.80222 22.5857 4.00843 22.9143 3.18035 22.9167H2.08347V21.8198C2.08242 21.4093 2.1628 21.0026 2.31997 20.6234C2.47714 20.2441 2.70797 19.8998 2.9991 19.6104L15.8564 6.75312L18.2522 9.14896L5.38972 22.0021ZM22.3314 5.05937L19.721 7.67083L17.3251 5.28021L19.9366 2.66875C20.0939 2.51178 20.2806 2.38733 20.486 2.30251C20.6914 2.21769 20.9115 2.17415 21.1338 2.1744C21.356 2.17464 21.576 2.21865 21.7812 2.30392C21.9864 2.38918 22.1729 2.51404 22.3298 2.67135C22.4868 2.82866 22.6112 3.01535 22.6961 3.22076C22.7809 3.42617 22.8244 3.64627 22.8242 3.86851C22.8239 4.09074 22.7799 4.31075 22.6947 4.51597C22.6094 4.72119 22.4845 4.90761 22.3272 5.06458L22.3314 5.05937Z" fill="white"/>
</g>
<defs>
<clipPath id="clip0_127_1149">
<rect width="25" height="25" fill="white"/>
</clipPath>
</defs>
</svg>
