<svg width="230" height="230" viewBox="0 0 230 230" fill="none" xmlns="http://www.w3.org/2000/svg">
<circle cx="115" cy="115" r="115" fill="url(#paint0_linear_264_653)"/>
<g clip-path="url(#clip0_264_653)">
<path d="M114.5 105.5C123.054 105.5 131.416 102.963 138.528 98.2106C145.641 93.4582 151.184 86.7035 154.458 78.8006C157.731 70.8977 158.588 62.2016 156.919 53.8119C155.25 45.4222 151.131 37.7158 145.082 31.6672C139.034 25.6185 131.327 21.4994 122.938 19.8306C114.548 18.1618 105.852 19.0183 97.9489 22.2917C90.046 25.5652 83.2913 31.1087 78.5389 38.2211C73.7866 45.3335 71.25 53.6955 71.25 62.2495C71.2614 73.7166 75.8218 84.7108 83.9303 92.8193C92.0387 100.928 103.033 105.488 114.5 105.5ZM114.5 33.4162C120.203 33.4162 125.777 35.1072 130.519 38.2755C135.261 41.4437 138.956 45.9469 141.139 51.2155C143.321 56.4841 143.892 62.2815 142.779 67.8746C141.667 73.4678 138.921 78.6054 134.888 82.6378C130.856 86.6702 125.718 89.4163 120.125 90.5288C114.532 91.6414 108.735 91.0704 103.466 88.8881C98.1974 86.7057 93.6942 83.0101 90.526 78.2685C87.3577 73.5269 85.6667 67.9522 85.6667 62.2495C85.6667 54.6025 88.7045 47.2686 94.1118 41.8613C99.5191 36.454 106.853 33.4162 114.5 33.4162Z" fill="white"/>
<path d="M114.5 119.921C97.2999 119.94 80.8098 126.781 68.6475 138.944C56.4852 151.106 49.6441 167.596 49.625 184.796C49.625 186.708 50.3844 188.541 51.7363 189.893C53.0881 191.245 54.9216 192.004 56.8333 192.004C58.7451 192.004 60.5786 191.245 61.9304 189.893C63.2822 188.541 64.0417 186.708 64.0417 184.796C64.0417 171.414 69.3578 158.579 78.8206 149.117C88.2833 139.654 101.118 134.338 114.5 134.338C127.882 134.338 140.717 139.654 150.179 149.117C159.642 158.579 164.958 171.414 164.958 184.796C164.958 186.708 165.718 188.541 167.07 189.893C168.421 191.245 170.255 192.004 172.167 192.004C174.078 192.004 175.912 191.245 177.264 189.893C178.616 188.541 179.375 186.708 179.375 184.796C179.356 167.596 172.515 151.106 160.352 138.944C148.19 126.781 131.7 119.94 114.5 119.921Z" fill="white"/>
</g>
<defs>
<linearGradient id="paint0_linear_264_653" x1="19.7143" y1="3.28572" x2="174.143" y2="177.429" gradientUnits="userSpaceOnUse">
<stop stop-color="#43E97B"/>
<stop offset="1" stop-color="#38F9D7"/>
</linearGradient>
<clipPath id="clip0_264_653">
<rect width="173" height="173" fill="white" transform="translate(28 19)"/>
</clipPath>
</defs>
</svg>
