<svg width="95" height="91" viewBox="0 0 95 91" fill="none" xmlns="http://www.w3.org/2000/svg">
<g clip-path="url(#clip0_158_537)">
<path d="M73.5502 8.11679L48.7513 0.195997C47.9393 -0.0630537 47.0616 -0.0630537 46.2496 0.195997L21.4507 8.11679C17.5078 9.37138 14.0779 11.7843 11.6484 15.0127C9.21891 18.2412 7.91331 22.1209 7.91712 26.1007V45.5026C7.91712 74.179 44.3338 90.0168 45.8934 90.6765C46.3993 90.8919 46.9468 91.0031 47.5005 91.0031C48.0541 91.0031 48.6016 90.8919 49.1075 90.6765C50.6671 90.0168 87.0838 74.179 87.0838 45.5026V26.1007C87.0876 22.1209 85.782 18.2412 83.3525 15.0127C80.923 11.7843 77.4931 9.37138 73.5502 8.11679ZM79.1671 45.5026C79.1671 66.1862 54.1544 79.7527 47.5005 82.9984C40.8386 79.7641 15.8338 66.2393 15.8338 45.5026V26.1007C15.834 23.713 16.6186 21.3859 18.0764 19.4491C19.5343 17.5123 21.5914 16.0641 23.9563 15.3096L47.5005 7.79071L71.0446 15.3096C73.4095 16.0641 75.4667 17.5123 76.9245 19.4491C78.3823 21.3859 79.1669 23.713 79.1671 26.1007V45.5026Z" fill="#1D192B"/>
<path d="M60.5623 31.4721L43.9848 47.3971L35.1023 38.5246C34.7458 38.1513 34.3149 37.85 33.835 37.6387C33.3551 37.4273 32.836 37.3101 32.308 37.2939C31.7801 37.2777 31.2542 37.3629 30.7612 37.5444C30.2681 37.7259 29.818 38.0001 29.4374 38.3508C29.0567 38.7016 28.7531 39.1217 28.5446 39.5866C28.3361 40.0514 28.2268 40.5515 28.2231 41.0575C28.2195 41.5634 28.3216 42.0649 28.5234 42.5325C28.7252 43 29.0227 43.4241 29.3983 43.7799L38.5262 52.8799C39.2069 53.5842 40.0297 54.149 40.9448 54.54C41.8599 54.931 42.8483 55.1402 43.8502 55.1549H43.9808C44.9627 55.158 45.9354 54.9743 46.8426 54.6143C47.7497 54.2544 48.5732 53.7254 49.2652 53.0581L66.1752 36.8601C66.5445 36.507 66.8376 36.0878 67.0378 35.6262C67.238 35.1647 67.3413 34.6699 67.3418 34.1701C67.3424 33.6703 67.2402 33.1753 67.041 32.7134C66.8419 32.2514 66.5497 31.8316 66.1811 31.4778C65.8126 31.124 65.3749 30.8432 64.893 30.6515C64.4112 30.4597 63.8947 30.3608 63.3729 30.3602C62.8512 30.3597 62.3344 30.4576 61.8521 30.6484C61.3699 30.8392 60.9316 31.1191 60.5623 31.4721Z" fill="#1D192B"/>
</g>
<defs>
<clipPath id="clip0_158_537">
<rect width="95" height="91" fill="white"/>
</clipPath>
</defs>
</svg>
