<svg width="20" height="20" viewBox="0 0 20 20" fill="none" xmlns="http://www.w3.org/2000/svg">
<g clip-path="url(#clip0_127_3021)">
<path d="M9.99984 0.833333V5.83333C9.99862 6.7935 9.66643 7.7239 9.05924 8.46771C8.45205 9.21152 7.60699 9.72325 6.6665 9.91667V19.1667C6.6665 19.3877 6.57871 19.5996 6.42243 19.7559C6.26615 19.9122 6.05418 20 5.83317 20C5.61216 20 5.4002 19.9122 5.24392 19.7559C5.08763 19.5996 4.99984 19.3877 4.99984 19.1667V9.91667C4.05935 9.72325 3.21429 9.21152 2.6071 8.46771C1.99991 7.7239 1.66772 6.7935 1.6665 5.83333V0.833333C1.6665 0.61232 1.7543 0.400358 1.91058 0.244078C2.06686 0.0877974 2.27882 0 2.49984 0C2.72085 0 2.93281 0.0877974 3.08909 0.244078C3.24537 0.400358 3.33317 0.61232 3.33317 0.833333V5.83333C3.33531 6.34855 3.49657 6.85052 3.79491 7.27058C4.09325 7.69064 4.51408 8.00826 4.99984 8.18V0.833333C4.99984 0.61232 5.08763 0.400358 5.24392 0.244078C5.4002 0.0877974 5.61216 0 5.83317 0C6.05418 0 6.26615 0.0877974 6.42243 0.244078C6.57871 0.400358 6.6665 0.61232 6.6665 0.833333V8.18C7.15226 8.00826 7.57309 7.69064 7.87143 7.27058C8.16977 6.85052 8.33103 6.34855 8.33317 5.83333V0.833333C8.33317 0.61232 8.42097 0.400358 8.57725 0.244078C8.73353 0.0877974 8.94549 0 9.1665 0C9.38752 0 9.59948 0.0877974 9.75576 0.244078C9.91204 0.400358 9.99984 0.61232 9.99984 0.833333ZM18.3332 8.33333C18.2959 9.91704 17.9019 11.4719 17.1805 12.8823C16.4591 14.2926 15.4289 15.5221 14.1665 16.4792V19.1667C14.1665 19.3877 14.0787 19.5996 13.9224 19.7559C13.7661 19.9122 13.5542 20 13.3332 20C13.1122 20 12.9002 19.9122 12.7439 19.7559C12.5876 19.5996 12.4998 19.3877 12.4998 19.1667V1.66667C12.4924 1.35355 12.5779 1.04526 12.7457 0.780774C12.9135 0.516293 13.1559 0.307509 13.4423 0.180833C13.7714 0.046971 14.1323 0.0118585 14.4809 0.0797868C14.8296 0.147715 15.1509 0.315742 15.4057 0.563333C17.3385 2.68413 18.386 5.46441 18.3332 8.33333ZM16.6665 8.33333C16.6901 5.89346 15.7981 3.5334 14.1665 1.71917V14.225C15.7282 12.6569 16.6239 10.5461 16.6665 8.33333Z" fill="white"/>
</g>
<defs>
<clipPath id="clip0_127_3021">
<rect width="20" height="20" fill="white"/>
</clipPath>
</defs>
</svg>
